<svg width="32" height="32" viewBox="0 0 32 32" fill="none" xmlns="http://www.w3.org/2000/svg">
<path d="M21.5034 4H10.4966C6.91431 4 4 6.91431 4 10.4966V21.5036C4 25.0857 6.91431 28 10.4966 28H21.5036C25.0857 28 28 25.0857 28 21.5036V10.4966C28 6.91431 25.0857 4 21.5034 4ZM16 22.5623C12.3815 22.5623 9.43768 19.6185 9.43768 16C9.43768 12.3815 12.3815 9.43768 16 9.43768C19.6185 9.43768 22.5623 12.3815 22.5623 16C22.5623 19.6185 19.6185 22.5623 16 22.5623ZM22.7192 10.9853C21.6499 10.9853 20.7802 10.1155 20.7802 9.0462C20.7802 7.97687 21.6499 7.10693 22.7192 7.10693C23.7886 7.10693 24.6585 7.97687 24.6585 9.0462C24.6585 10.1155 23.7886 10.9853 22.7192 10.9853Z" fill="#767676"/>
<path d="M15.9999 10.8446C13.1574 10.8446 10.8446 13.1572 10.8446 15.9999C10.8446 18.8425 13.1574 21.1553 15.9999 21.1553C18.8427 21.1553 21.1553 18.8425 21.1553 15.9999C21.1553 13.1572 18.8427 10.8446 15.9999 10.8446Z" fill="#767676"/>
<path d="M22.7192 8.51404C22.4259 8.51404 22.1871 8.75281 22.1871 9.04614C22.1871 9.33948 22.4259 9.57825 22.7192 9.57825C23.0128 9.57825 23.2515 9.33966 23.2515 9.04614C23.2515 8.75262 23.0128 8.51404 22.7192 8.51404Z" fill="#767676"/>
</svg>
